#N canvas 66 580 1512 916 12;
#X obj 129 16 tgl 19 0 empty empty empty 0 -10 0 12 #fcfcfc #000000 #000000 0 1;
#X obj 135 72 metro 40;
#X obj 135 96 i;
#X floatatom 131 147 5 0 0 0 - - - 0;
#X obj 176 96 sel 1024;
#X obj 194 120 i 0;
#X obj 357 90 s ms-per-sym;
#X obj 189 48 r ms-per-sym;
#X floatatom 354 56 5 0 0 0 - - - 0;
#X obj 134 120 + 1;
#X text 32 15 global clock;
#X obj 131 170 s clock;
#X text 158 15 <--- click to start!!!;
#X text 400 57 higher = slower \, better. lower = faster \, noisier;
#X obj 196 369 pulse-node;
#X obj 263 336 r clock;
#X obj 456 369 pulse-node;
#X obj 523 336 r clock;
#X obj 600 369 pulse-node;
#X obj 667 335 r clock;
#X obj 333 369 pulse-node;
#X obj 400 335 r clock;
#X obj 435 423 delwrite~ d1 10;
#X obj 457 200 delread~ d1 1;
#X obj 388 520 dac~ 1 2 3 4;
#N canvas 41 257 845 480 abt 0;
#X text 33 43 PINGTRAIN 4 NODE COMMUNICATION SYSTEM QUADRAPHONIC GENERATIVE COMPOSITION FOR PUREDATA KEATON KOWAL 2023, f 46;
#X restore 67 227 pd abt;
#X connect 0 0 1 0;
#X connect 1 0 2 0;
#X connect 2 0 9 0;
#X connect 3 0 11 0;
#X connect 4 0 5 0;
#X connect 5 0 2 0;
#X connect 7 0 1 1;
#X connect 8 0 6 0;
#X connect 9 0 2 1;
#X connect 9 0 3 0;
#X connect 9 0 4 0;
#X connect 14 0 22 0;
#X connect 14 0 24 0;
#X connect 15 0 14 1;
#X connect 16 0 22 0;
#X connect 16 0 24 2;
#X connect 17 0 16 1;
#X connect 18 0 22 0;
#X connect 18 0 24 3;
#X connect 19 0 18 1;
#X connect 20 0 22 0;
#X connect 20 0 24 1;
#X connect 21 0 20 1;
#X connect 23 0 20 0;
#X connect 23 0 16 0;
#X connect 23 0 14 0;
#X connect 23 0 18 0;
