#N canvas 812 168 756 814 12;
#N canvas 836 160 770 733 encode-2bit 0;
#X obj 75 19 inlet;
#X text 121 17 message;
#X obj 204 522 outlet;
#X text 258 521 list;
#X obj 137 73 fudiformat;
#X obj 130 143 list store;
#X obj 137 97 t b a;
#X obj 291 118 until;
#X obj 306 140 i 0;
#X obj 341 118 i 0;
#X obj 340 141 + 1;
#X msg 306 171 get \$1;
#X text 377 138 iterate over the fudi message int-by-int;
#X text 299 216 for each 8-bit int \, turn it into 4 2-bit ints \, then append these to a list of encoded ints;
#X obj 199 251 expr $f1 & 3;
#X obj 184 275 expr ($f1 >> 2) & 3;
#X obj 169 300 expr ($f1 >> 4) & 3;
#X obj 150 325 expr ($f1 >> 6) & 3;
#X floatatom 156 185 5 0 0 0 - - - 0;
#X obj 381 257 expr $f1 | ($f2 << 2) | ($f3 << 4) | ($f4 << 6);
#X text 720 258 to 'undo';
#X obj 400 361 list append;
#X obj 406 310 list store;
#X obj 500 320 bng 19 250 50 0 empty empty empty 0 -10 0 12 #fcfcfc #000000 #000000;
#X text 524 320 clear;
#X obj 130 216 t b a a a a b;
#X obj 348 285 t b;
#X obj 411 281 bng 19 250 50 0 empty empty empty 0 -10 0 12 #fcfcfc #000000 #000000;
#X obj 25 118 s \$0-enc-start;
#X obj 498 293 r \$0-enc-start;
#X obj 254 428 list store;
#X obj 196 169 s \$0-enc-end;
#X obj 335 82 r \$0-enc-end;
#X obj 253 398 r \$0-enc-end;
#X text 341 427 final encoded message;
#X obj 75 43 print \$0 saying;
#X connect 0 0 4 0;
#X connect 0 0 35 0;
#X connect 4 0 6 0;
#X connect 5 0 18 0;
#X connect 5 0 25 0;
#X connect 5 1 31 0;
#X connect 6 0 7 0;
#X connect 6 0 28 0;
#X connect 6 1 5 1;
#X connect 7 0 8 0;
#X connect 8 0 10 0;
#X connect 8 0 11 0;
#X connect 9 0 8 1;
#X connect 10 0 8 1;
#X connect 11 0 5 0;
#X connect 14 0 21 1;
#X connect 15 0 21 1;
#X connect 16 0 21 1;
#X connect 17 0 21 1;
#X connect 21 0 22 1;
#X connect 22 0 21 0;
#X connect 22 0 30 1;
#X connect 23 0 22 1;
#X connect 25 1 17 0;
#X connect 25 1 26 0;
#X connect 25 2 16 0;
#X connect 25 2 26 0;
#X connect 25 3 15 0;
#X connect 25 3 26 0;
#X connect 25 4 14 0;
#X connect 25 4 26 0;
#X connect 26 0 22 0;
#X connect 27 0 22 0;
#X connect 29 0 23 0;
#X connect 30 0 2 0;
#X connect 32 0 7 1;
#X connect 32 0 9 0;
#X connect 33 0 30 0;
#X restore 110 526 pd encode-2bit;
#N canvas 989 250 662 755 decode-2bit 0;
#X obj 32 26 inlet;
#X obj 37 656 outlet;
#X text 91 654 message;
#X text 80 27 list and bang;
#X obj 32 50 t b a;
#X obj 58 138 list store;
#X obj 172 141 until;
#X obj 172 165 i 0;
#X obj 222 134 i 0;
#X obj 214 164 + 4;
#X msg 171 201 get \$1 4;
#X text 261 130 iterate over groups of 4;
#X obj 55 302 expr $f1 | ($f2 << 2) | ($f3 << 4) | ($f4 << 6);
#X obj 57 243 list split 2;
#X obj 57 270 list split 1;
#X obj 160 271 list split 1;
#X text 262 252 turn group of 4 2-bit ints back into 8-bit number;
#X obj 92 369 list store;
#X obj 92 401 list append;
#X obj 55 326 t b a;
#X obj 75 468 list store;
#X text 179 367 keep running list of 8-bit numbers in message;
#X text 161 468 final message \, parse;
#X obj 75 492 fudiparse;
#X connect 0 0 4 0;
#X connect 4 0 8 0;
#X connect 4 0 6 0;
#X connect 4 0 17 1;
#X connect 4 0 20 1;
#X connect 4 1 5 1;
#X connect 5 0 13 0;
#X connect 5 1 6 1;
#X connect 5 1 20 0;
#X connect 6 0 7 0;
#X connect 7 0 9 0;
#X connect 7 0 10 0;
#X connect 8 0 7 1;
#X connect 9 0 7 1;
#X connect 10 0 5 0;
#X connect 12 0 19 0;
#X connect 13 0 14 0;
#X connect 13 1 15 0;
#X connect 14 0 12 0;
#X connect 14 1 12 1;
#X connect 15 0 12 2;
#X connect 15 1 12 3;
#X connect 17 0 18 0;
#X connect 18 0 17 1;
#X connect 18 0 20 1;
#X connect 19 0 17 0;
#X connect 19 1 18 1;
#X connect 20 0 23 0;
#X connect 23 0 1 0;
#X restore 64 343 pd decode-2bit;
#X listbox 109 551 62 0 0 0 - - - 0;
#N canvas 630 327 813 665 pulse-transmit 0;
#X obj 14 18 inlet;
#X text 58 17 bang and list;
#X text 249 20 clock phasor;
#X obj 199 19 inlet;
#X obj 51 608 outlet~;
#X text 113 607 audio out;
#X obj 13 121 list store;
#X obj 14 42 t b a;
#X obj 95 87 sel 0;
#X obj 140 87 bng 19 250 50 0 empty empty empty 0 -10 0 12 #fcfcfc #000000 #000000;
#X obj 98 121 t b b;
#X obj 58 150 list length;
#X obj 58 174 != 0;
#X obj 16 206 spigot;
#X text 145 121 output list only on valid window phase;
#X floatatom 100 229 5 0 0 0 - - - 0;
#X text 139 231 list index;
#X obj 22 306 list store;
#X msg 99 252 get \$1;
#X obj 72 198 s \$0-transmit-state;
#X obj 99 276 spigot;
#X obj 158 254 r \$0-transmit-state;
#X text 105 305 value in list to send in this time frame;
#X obj 39 359 bng 19 50 10 0 empty empty empty 0 -10 0 12 #fcfcfc #000000 #000000;
#X text 62 361 message pulse;
#X obj 120 561 vline~;
#X obj 23 567 *~;
#X obj 270 485 r ms-per-sym;
#X obj 254 510 i;
#X obj 254 534 / 8;
#X msg 257 568 1 0 \, 0 \$1 10;
#X obj 94 44 mod 128;
#X obj 181 162 mod 32;
#X obj 429 314 mod 4;
#X obj 427 338 sel 0 1 2 3;
#X obj 433 290 spigot;
#X obj 467 255 r \$0-transmit-state;
#X floatatom 434 419 5 0 0 0 - - - 0;
#X obj 434 372 i;
#X floatatom 546 420 5 0 0 0 - - - 0;
#X obj 545 371 i;
#X obj 434 395 expr $f1 >= 1;
#X obj 546 396 expr $f1 >= 2;
#X floatatom 649 420 5 0 0 0 - - - 0;
#X obj 648 371 i;
#X obj 649 396 expr $f1 >= 3;
#X obj 418 458 spigot;
#X obj 89 405 noise~;
#X obj 152 161 / 4;
#X obj 7 475 osc~ 400;
#X obj 166 466 loadbang;
#X obj 167 521 *;
#X obj 199 489 r \$0-name;
#X obj 25 509 *~;
#X obj 199 513 + 1;
#X obj 70 529 osc~ 1000;
#X obj 89 453 abs~;
#X obj 89 477 +~ 1;
#X obj 167 497 200;
#X obj 89 429 lop~ 10;
#X obj 25 533 cos~;
#X obj 89 501 *~ 200;
#X connect 0 0 7 0;
#X connect 3 0 31 0;
#X connect 6 0 11 0;
#X connect 6 0 13 0;
#X connect 7 1 6 1;
#X connect 8 0 9 0;
#X connect 8 0 10 0;
#X connect 10 0 6 1;
#X connect 10 1 6 0;
#X connect 11 0 12 0;
#X connect 12 0 19 0;
#X connect 12 0 13 1;
#X connect 13 0 17 1;
#X connect 15 0 18 0;
#X connect 17 0 38 1;
#X connect 17 0 40 1;
#X connect 17 0 44 1;
#X connect 18 0 20 0;
#X connect 20 0 17 0;
#X connect 21 0 20 1;
#X connect 23 0 28 0;
#X connect 25 0 26 1;
#X connect 26 0 4 0;
#X connect 27 0 28 1;
#X connect 28 0 29 0;
#X connect 29 0 30 0;
#X connect 30 0 25 0;
#X connect 31 0 8 0;
#X connect 31 0 48 0;
#X connect 31 0 35 0;
#X connect 32 0 15 0;
#X connect 33 0 34 0;
#X connect 34 0 23 0;
#X connect 34 1 38 0;
#X connect 34 2 40 0;
#X connect 34 3 44 0;
#X connect 35 0 33 0;
#X connect 35 0 46 0;
#X connect 36 0 35 1;
#X connect 38 0 41 0;
#X connect 40 0 42 0;
#X connect 41 0 37 0;
#X connect 41 0 46 1;
#X connect 42 0 39 0;
#X connect 42 0 46 1;
#X connect 44 0 45 0;
#X connect 45 0 43 0;
#X connect 45 0 46 1;
#X connect 46 0 23 0;
#X connect 47 0 59 0;
#X connect 48 0 32 0;
#X connect 49 0 53 0;
#X connect 50 0 58 0;
#X connect 51 0 49 0;
#X connect 52 0 54 0;
#X connect 53 0 60 0;
#X connect 54 0 51 1;
#X connect 55 0 53 1;
#X connect 56 0 57 0;
#X connect 57 0 61 0;
#X connect 58 0 51 0;
#X connect 59 0 56 0;
#X connect 60 0 26 0;
#X connect 61 0 55 0;
#X restore 112 608 pd pulse-transmit;
#X obj 565 10 tgl 19 0 empty empty empty 0 -10 0 12 #fcfcfc #000000 #000000 0 1;
#X obj 565 34 metro 40;
#X obj 565 58 i;
#X obj 219 232 s \$0-phasor;
#X floatatom 586 161 5 0 0 0 - - - 0;
#X obj 606 58 sel 1024;
#X obj 624 82 i 0;
#X obj 201 586 r \$0-phasor;
#X text 150 635 32-symbol message window 19 symbol data \, remaining padding only send message when phasor % 32 = 0 if != 0 \, hold message until window;
#X obj 37 22 loadbang;
#X obj 37 46 bng 19 250 50 0 empty empty empty 0 -10 0 12 #fcfcfc #000000 #000000;
#X obj 77 95 s \$0-id;
#X obj 403 452 r \$0-id;
#X obj 37 70 \$0;
#X obj 467 74 s ms-per-sym;
#X obj 619 10 r ms-per-sym;
#X floatatom 464 40 5 0 0 0 - - - 0;
#N canvas 210 671 1340 938 pulse-receive 0;
#X obj 36 82 inlet~;
#X text 88 135 audio in;
#X obj 306 131 inlet;
#X text 352 132 phase;
#X obj 66 795 outlet;
#X text 119 795 list and bang;
#X obj 34 157 abs~;
#X obj 21 17 array define \$0-ear-buffer 2048;
#X obj 79 160 tabwrite~ \$0-ear-buffer;
#X obj 167 84 loadbang;
#X obj 167 108 tgl 19 0 empty empty empty 0 -10 0 12 #fcfcfc #000000 #000000 0 1;
#X obj 167 132 metro 1000;
#X obj 642 153 expr avg("$s1");
#X obj 640 129 symbol \$0-ear-buffer;
#X obj 642 50 loadbang;
#X obj 642 74 bng 19 250 50 0 empty empty empty 0 -10 0 12 #fcfcfc #000000 #000000;
#X obj 432 23 loadbang;
#X obj 432 47 bng 19 250 50 0 empty empty empty 0 -10 0 12 #fcfcfc #000000 #000000;
#X obj 432 71 samplerate~;
#X obj 432 95 array size \$0-ear-buffer;
#X obj 773 273 i 0;
#X obj 774 249 r \$0-win-start;
#X obj 306 193 mod 128;
#X obj 229 235 mod 32;
#X obj 307 243 mod 4;
#X text 364 193 message phase;
#X text 260 215 symbol index;
#X text 364 240 pulse phase;
#X obj 83 301 snapshot~;
#X floatatom 35 379 5 0 0 0 - - - 0;
#X obj 306 265 t b;
#X obj 229 209 / 4;
#X obj 276 320 == 0;
#X obj 228 319 t b;
#X obj 228 343 spigot;
#X obj 190 341 bng 19 250 50 0 empty empty empty 0 -10 0 12 #fcfcfc #000000 #000000;
#X text 281 342 reset;
#X obj 263 368 r \$0-id;
#X obj 230 392 i;
#X msg 263 394 \; \$1-pulse-counts 0 0 0 0 0 0 0 0 0 0 0 0 0 0 0 0 0 0 0 0 0 0 0 0 0 0 0 0 0 0 0 0 0, f 19;
#X obj 512 293 tabread \$0-pulse-counts;
#X obj 511 370 tabwrite \$0-pulse-counts;
#X obj 513 318 +;
#X obj 83 325 > 0;
#X floatatom 513 342 5 0 0 0 - - - 0;
#X obj 28 45 array define -yrange 0 3 \$0-pulse-counts 32;
#X floatatom 83 349 5 0 0 0 - - - 0;
#X obj 190 446 i;
#X obj 83 372 t b;
#X floatatom 579 324 5 0 0 0 - - - 0;
#X floatatom 450 336 5 0 0 0 - - - 0;
#X obj 357 216 t a a;
#X obj 306 289 delay 5;
#X obj 477 426 array get \$0-pulse-counts;
#X obj 162 367 t b b;
#X listbox 561 453 64 0 0 0 - - - 0;
#X obj 450 359 sel 31;
#X obj 477 450 list;
#X obj 616 529 until;
#X obj 629 612 list store;
#X obj 616 554 f;
#X obj 654 555 + 1;
#X msg 673 529 0, f 2;
#X msg 616 585 get \$1 1;
#X obj 650 496 t b b l b;
#X obj 705 667 list store;
#X obj 704 695 list append;
#X obj 629 636 expr max($f1 - 1 \, 0);
#X obj 73 741 list store;
#X floatatom 642 177 5 0 0 0 - - - 0;
#X obj 590 249 * 2;
#X obj 642 200 sig~;
#X obj 642 248 snapshot~;
#X floatatom 642 272 5 0 0 0 - - - 0;
#X obj 246 104 metro 10;
#X obj 642 224 slop~ 1 1e+09 0 0.0001 0;
#X obj 36 106 *~ 4;
#X obj 36 189 lop~ 1200;
#X connect 0 0 76 0;
#X connect 2 0 22 0;
#X connect 6 0 77 0;
#X connect 9 0 10 0;
#X connect 10 0 11 0;
#X connect 10 0 74 0;
#X connect 11 0 8 0;
#X connect 11 0 13 0;
#X connect 12 0 69 0;
#X connect 13 0 12 0;
#X connect 14 0 15 0;
#X connect 15 0 13 0;
#X connect 16 0 17 0;
#X connect 17 0 18 0;
#X connect 18 0 19 0;
#X connect 21 0 20 0;
#X connect 22 0 51 0;
#X connect 23 0 32 0;
#X connect 23 0 33 0;
#X connect 23 0 41 1;
#X connect 23 0 47 1;
#X connect 24 0 30 0;
#X connect 28 0 29 0;
#X connect 28 0 43 0;
#X connect 30 0 47 0;
#X connect 30 0 52 0;
#X connect 31 0 23 0;
#X connect 32 0 34 1;
#X connect 33 0 34 0;
#X connect 34 0 35 0;
#X connect 35 0 54 0;
#X connect 37 0 38 1;
#X connect 38 0 39 0;
#X connect 40 0 42 0;
#X connect 40 0 49 0;
#X connect 42 0 44 0;
#X connect 43 0 42 1;
#X connect 43 0 46 0;
#X connect 44 0 41 0;
#X connect 46 0 48 0;
#X connect 47 0 40 0;
#X connect 47 0 50 0;
#X connect 50 0 56 0;
#X connect 51 0 31 0;
#X connect 51 1 24 0;
#X connect 52 0 28 0;
#X connect 53 0 55 0;
#X connect 53 0 57 0;
#X connect 54 0 38 0;
#X connect 54 1 68 0;
#X connect 55 0 64 0;
#X connect 56 0 53 0;
#X connect 58 0 60 0;
#X connect 58 0 65 0;
#X connect 59 0 67 0;
#X connect 59 1 58 1;
#X connect 60 0 61 0;
#X connect 60 0 63 0;
#X connect 61 0 60 1;
#X connect 62 0 60 1;
#X connect 63 0 59 0;
#X connect 64 0 58 0;
#X connect 64 1 62 0;
#X connect 64 2 59 1;
#X connect 64 3 65 1;
#X connect 65 0 66 0;
#X connect 66 0 65 1;
#X connect 66 0 68 1;
#X connect 67 0 66 1;
#X connect 68 0 4 0;
#X connect 69 0 71 0;
#X connect 70 0 43 1;
#X connect 71 0 75 0;
#X connect 72 0 73 0;
#X connect 73 0 70 0;
#X connect 74 0 72 0;
#X connect 75 0 72 0;
#X connect 76 0 6 0;
#X connect 77 0 28 0;
#X connect 77 0 8 0;
#X restore 63 316 pd pulse-receive;
#X obj 175 279 r \$0-phasor;
#X obj 564 82 + 1;
#X msg 389 367 hi 2;
#X msg 196 476 hi 1;
#X msg 433 370 ping 6;
#X obj 36 121 mod 12;
#X obj 36 145 s \$0-name;
#X obj 64 367 list;
#X listbox 64 391 20 0 0 0 - - - 0;
#X obj 220 181 inlet;
#X text 264 182 global clock phasor;
#X floatatom 220 205 5 0 0 0 - - - 0;
#X obj 50 184 inlet~;
#X text 102 184 'ear'/mic in;
#X obj 119 760 outlet~;
#X text 182 760 voice out;
#X obj 50 208 s~ \$0-ear;
#X obj 61 290 r~ \$0-ear;
#X text 193 312 receive & decode messages from ears, f 21;
#N canvas 501 169 1299 806 brain 0;
#X obj 54 24 inlet;
#X text 103 22 list \, last received message;
#X obj 616 705 outlet;
#X text 668 703 message to send;
#X obj 398 82 list store;
#X text 477 81 list of known nodes;
#X obj 397 31 r \$0-id;
#X text 457 30 node id;
#X obj 232 143 list length;
#X obj 155 74 list;
#X obj 232 167 sel 1 2;
#X obj 230 192 bng 19 250 50 0 empty empty empty 0 -10 0 12 #fcfcfc #000000 #000000;
#X obj 259 191 bng 19 250 50 0 empty empty empty 0 -10 0 12 #fcfcfc #000000 #000000;
#X obj 54 224 list store;
#X obj 267 225 list store;
#X obj 185 132 t a a;
#X text 345 227 message list;
#X text 135 223 empty list;
#X obj 267 249 list split 1;
#X obj 308 308 i;
#X symbolatom 269 280 10 0 0 0 - - - 0;
#X text 346 281 action;
#X text 343 309 node id;
#X obj 84 331 sel ping;
#X obj 84 355 bng 19 250 50 0 empty empty empty 0 -10 0 12 #fcfcfc #000000 #000000;
#X obj 298 341 sel hi;
#X obj 300 369 bng 19 250 50 0 empty empty empty 0 -10 0 12 #fcfcfc #000000 #000000;
#X text 349 340 add to known list;
#X obj 332 420 list store;
#X obj 330 445 list append;
#X listbox 468 423 20 0 0 0 - - - 0;
#X obj 335 370 i;
#X obj 400 389 bng 19 250 50 0 empty empty empty 0 -10 0 12 #fcfcfc #000000 #000000;
#X obj 335 394 t b a;
#X text 427 389 clear known list;
#X obj 85 411 ==;
#X obj 84 379 i;
#X floatatom 85 435 5 0 0 0 - - - 0;
#X floatatom 118 402 5 0 0 0 - - - 0;
#X obj 118 378 r \$0-name;
#X obj 85 461 sel 1;
#X obj 85 485 bng 19 250 50 0 empty empty empty 0 -10 0 12 #fcfcfc #000000 #000000;
#X text 110 486 ping for us \, reply;
#X obj 432 476 list length;
#X floatatom 432 500 5 0 0 0 - - - 0;
#X obj 64 517 random;
#X msg 64 541 get \$1;
#X floatatom 468 446 5 0 0 0 - - - 0;
#X obj 63 573 list store;
#X floatatom 63 597 5 0 0 0 - - - 0;
#X msg 63 645 ping \$1;
#X obj 432 523 > 128;
#X obj 432 547 sel 1;
#X obj 802 464 i;
#X obj 819 434 r \$0-name;
#X msg 802 488 hi \$1;
#X text 126 645 ping another node;
#X obj 54 248 t b;
#X obj 54 272 s \$0-silent;
#X obj 732 185 r \$0-silent;
#X obj 765 268 - 1;
#X obj 804 224 <= 0;
#X obj 802 254 sel 1;
#X floatatom 677 273 5 0 0 0 - - - 0;
#X obj 736 220 bng 19 250 50 0 empty empty empty 0 -10 0 12 #fcfcfc #000000 #000000;
#X obj 767 241 i;
#X obj 804 311 + 1;
#X text 843 221 random countdown;
#X text 846 253 intro when 0;
#X text 852 491 introduce self or say hi on coin flip;
#X obj 712 351 random 100;
#X obj 715 377 > 50;
#X obj 715 401 sel 0 1;
#X obj 804 287 random 40;
#X connect 0 0 9 0;
#X connect 8 0 10 0;
#X connect 9 0 15 0;
#X connect 10 0 11 0;
#X connect 10 1 12 0;
#X connect 11 0 13 0;
#X connect 12 0 14 0;
#X connect 13 0 57 0;
#X connect 14 0 18 0;
#X connect 15 0 8 0;
#X connect 15 1 14 1;
#X connect 15 1 13 1;
#X connect 18 0 20 0;
#X connect 18 1 19 0;
#X connect 19 0 31 1;
#X connect 19 0 36 1;
#X connect 20 0 23 0;
#X connect 20 0 25 0;
#X connect 23 0 24 0;
#X connect 24 0 36 0;
#X connect 25 0 26 0;
#X connect 26 0 31 0;
#X connect 28 0 29 0;
#X connect 29 0 28 1;
#X connect 29 0 30 0;
#X connect 29 0 48 1;
#X connect 30 0 43 0;
#X connect 30 0 47 0;
#X connect 31 0 33 0;
#X connect 32 0 28 1;
#X connect 33 0 28 0;
#X connect 33 1 29 1;
#X connect 35 0 37 0;
#X connect 36 0 35 0;
#X connect 37 0 40 0;
#X connect 39 0 35 1;
#X connect 39 0 38 0;
#X connect 40 0 41 0;
#X connect 41 0 45 0;
#X connect 43 0 44 0;
#X connect 44 0 45 1;
#X connect 44 0 51 0;
#X connect 45 0 46 0;
#X connect 46 0 48 0;
#X connect 48 0 49 0;
#X connect 49 0 50 0;
#X connect 50 0 2 0;
#X connect 51 0 52 0;
#X connect 52 0 32 0;
#X connect 53 0 55 0;
#X connect 54 0 53 1;
#X connect 55 0 2 0;
#X connect 57 0 58 0;
#X connect 59 0 64 0;
#X connect 60 0 65 1;
#X connect 61 0 62 0;
#X connect 62 0 70 0;
#X connect 62 0 73 0;
#X connect 64 0 65 0;
#X connect 65 0 60 0;
#X connect 65 0 63 0;
#X connect 65 0 61 0;
#X connect 66 0 65 1;
#X connect 70 0 71 0;
#X connect 71 0 72 0;
#X connect 72 0 53 0;
#X connect 72 1 45 0;
#X connect 73 0 66 0;
#X restore 109 448 pd brain;
#X text 217 525 encode & send a message;
#X text 178 447 decide what/if/when to speak;
#X connect 0 0 2 0;
#X connect 1 0 29 0;
#X connect 2 0 3 0;
#X connect 3 0 36 0;
#X connect 4 0 5 0;
#X connect 5 0 6 0;
#X connect 6 0 7 0;
#X connect 6 0 23 0;
#X connect 9 0 10 0;
#X connect 10 0 6 0;
#X connect 11 0 3 1;
#X connect 13 0 14 0;
#X connect 14 0 17 0;
#X connect 17 0 15 0;
#X connect 17 0 27 0;
#X connect 19 0 5 1;
#X connect 20 0 18 0;
#X connect 21 0 1 0;
#X connect 22 0 21 1;
#X connect 23 0 6 1;
#X connect 23 0 8 0;
#X connect 23 0 9 0;
#X connect 25 0 0 0;
#X connect 27 0 28 0;
#X connect 29 0 30 0;
#X connect 30 0 41 0;
#X connect 31 0 33 0;
#X connect 33 0 7 0;
#X connect 34 0 38 0;
#X connect 39 0 21 0;
#X connect 41 0 0 0;
